<svg xmlns="http://www.w3.org/2000/svg" viewBox="0 0 32 32">
  <rect width="32" height="32" rx="6" fill="#F5EDE0"/>
  <!-- ears -->
  <path d="M10 10 C9 6, 12 4, 13 5.5 C14 6.5, 13 9, 12 10.5" fill="none" stroke="#5C4A32" stroke-width="1.5" stroke-linecap="round"/>
  <path d="M22 10 C23 6, 20 4, 19 5.5 C18 6.5, 19 9, 20 10.5" fill="none" stroke="#5C4A32" stroke-width="1.5" stroke-linecap="round"/>
  <!-- head -->
  <path d="M9 14 C9 10, 13 7, 16 7 C19 7, 23 10, 23 14 C23 18, 21 21, 19 23 C18 24.5, 17 25.5, 16 26 C15 25.5, 14 24.5, 13 23 C11 21, 9 18, 9 14Z" fill="#F5EDE0" stroke="#5C4A32" stroke-width="1.5" stroke-linecap="round"/>
  <!-- eyes -->
  <circle cx="13" cy="14.5" r="1.5" fill="#3D2E1C"/>
  <circle cx="19" cy="14.5" r="1.5" fill="#3D2E1C"/>
  <circle cx="12.5" cy="14" r="0.5" fill="white" opacity="0.8"/>
  <circle cx="18.5" cy="14" r="0.5" fill="white" opacity="0.8"/>
  <!-- snout -->
  <ellipse cx="16" cy="21" rx="4" ry="3" fill="#E8C4B8" stroke="#5C4A32" stroke-width="1.2"/>
  <!-- nostrils -->
  <path d="M14.5 21 C14.5 20.2, 15 19.8, 15.5 20.5" stroke="#5C4A32" stroke-width="1" stroke-linecap="round" fill="none"/>
  <path d="M17.5 21 C17.5 20.2, 17 19.8, 16.5 20.5" stroke="#5C4A32" stroke-width="1" stroke-linecap="round" fill="none"/>
</svg>
