<svg xmlns="http://www.w3.org/2000/svg" viewBox="0 0 128 128" fill="none">
  <!-- Monochrome icon - light on dark/transparent background -->
  <circle cx="64" cy="64" r="62" fill="none" stroke="#F5EDE0" stroke-width="2"/>

  <!-- Ears -->
  <path d="M38 38 C36 26, 44 18, 50 22 C54 24, 52 34, 48 40" fill="none" stroke="#F5EDE0" stroke-width="2" stroke-linecap="round" stroke-linejoin="round"/>
  <path d="M90 38 C92 26, 84 18, 78 22 C74 24, 76 34, 80 40" fill="none" stroke="#F5EDE0" stroke-width="2" stroke-linecap="round" stroke-linejoin="round"/>

  <!-- Head -->
  <path d="M36 52 C36 38, 48 28, 64 28 C80 28, 92 38, 92 52 C92 68, 88 80, 82 88 C76 96, 68 102, 64 104 C60 102, 52 96, 46 88 C40 80, 36 68, 36 52Z" fill="none" stroke="#F5EDE0" stroke-width="2.2" stroke-linecap="round" stroke-linejoin="round"/>

  <!-- Forelock -->
  <path d="M52 32 C54 26, 60 24, 64 26 C68 24, 74 26, 76 32 C74 30, 68 28, 64 30 C60 28, 54 30, 52 32Z" fill="none" stroke="#F5EDE0" stroke-width="1.2" stroke-linecap="round"/>

  <!-- Eyes -->
  <ellipse cx="50" cy="54" rx="6.5" ry="7" fill="#F5EDE0"/>
  <ellipse cx="48" cy="52" rx="2.2" ry="2.5" fill="#3D2E1C" opacity="0.85"/>
  <ellipse cx="78" cy="54" rx="6.5" ry="7" fill="#F5EDE0"/>
  <ellipse cx="76" cy="52" rx="2.2" ry="2.5" fill="#3D2E1C" opacity="0.85"/>

  <!-- Eyebrows -->
  <path d="M42 46 C44 44, 48 43, 54 44" stroke="#F5EDE0" stroke-width="1.5" stroke-linecap="round" fill="none"/>
  <path d="M86 46 C84 44, 80 43, 74 44" stroke="#F5EDE0" stroke-width="1.5" stroke-linecap="round" fill="none"/>

  <!-- Snout -->
  <ellipse cx="64" cy="84" rx="18" ry="14" fill="none" stroke="#F5EDE0" stroke-width="2" stroke-linecap="round"/>

  <!-- Nostrils -->
  <path d="M56 84 C56 82, 58 80, 60 82" stroke="#F5EDE0" stroke-width="1.8" stroke-linecap="round" fill="none"/>
  <path d="M72 84 C72 82, 70 80, 68 82" stroke="#F5EDE0" stroke-width="1.8" stroke-linecap="round" fill="none"/>

  <!-- Mouth -->
  <path d="M58 90 C60 93, 64 94, 68 93 C70 92, 72 90, 70 89" stroke="#F5EDE0" stroke-width="1.5" stroke-linecap="round" fill="none"/>

  <!-- Halter -->
  <path d="M42 50 C46 48, 52 46, 58 48" stroke="#F5EDE0" stroke-width="2.5" stroke-linecap="round" fill="none"/>
  <path d="M86 50 C82 48, 76 46, 70 48" stroke="#F5EDE0" stroke-width="2.5" stroke-linecap="round" fill="none"/>
  <path d="M48 72 C52 76, 58 78, 64 78 C70 78, 76 76, 80 72" stroke="#F5EDE0" stroke-width="2.2" stroke-linecap="round" fill="none"/>
  <path d="M44 54 C44 60, 46 66, 48 72" stroke="#F5EDE0" stroke-width="2" stroke-linecap="round" fill="none"/>
  <path d="M84 54 C84 60, 82 66, 80 72" stroke="#F5EDE0" stroke-width="2" stroke-linecap="round" fill="none"/>
  <circle cx="64" cy="78" r="3" fill="none" stroke="#F5EDE0" stroke-width="1.8"/>
</svg>
